<svg id="Layer_1" height="512" viewBox="0 0 128 128" width="512" xmlns="http://www.w3.org/2000/svg" data-name="Layer 1"><path d="m6.5 15.346h115v97.308h-115z" fill="#e4e4e4"/><path d="m6.5 15.346h115v14.141h-115z" fill="#30ade0"/><circle cx="82.958" cy="22.417" fill="#e4e4e4" r="3.023"/><circle cx="94.792" cy="22.417" fill="#ffd169" r="3.023"/><g fill="#e5634e"><circle cx="106.625" cy="22.417" r="3.023"/><path d="m51.089 85.409a1.744 1.744 0 0 1 -1.237-.513l-12.589-12.588a1.749 1.749 0 0 1 0-2.475l12.589-12.588a1.75 1.75 0 1 1 2.475 2.475l-11.352 11.35 11.351 11.352a1.75 1.75 0 0 1 -1.237 2.987z"/><path d="m76.911 85.409a1.75 1.75 0 0 1 -1.237-2.987l11.351-11.352-11.351-11.351a1.75 1.75 0 0 1 2.475-2.475l12.588 12.589a1.749 1.749 0 0 1 0 2.475l-12.589 12.592a1.744 1.744 0 0 1 -1.237.509z"/><path d="m57.638 95.877a1.752 1.752 0 0 1 -1.688-2.216l12.726-46.112a1.75 1.75 0 1 1 3.374.931l-12.726 46.112a1.751 1.751 0 0 1 -1.686 1.285z"/></g></svg>